<svg width="63" height="63" viewBox="0 0 63 63" fill="none" xmlns="http://www.w3.org/2000/svg">
<path d="M49.6125 53.2875L34.9125 38.5875C33.6 39.6375 32.0906 40.4688 30.3844 41.0812C28.6781 41.6937 26.8625 42 24.9375 42C20.1687 42 16.1333 40.348 12.831 37.044C9.52875 33.74 7.87675 29.7045 7.875 24.9375C7.875 20.1687 9.527 16.1333 12.831 12.831C16.135 9.52875 20.1705 7.87675 24.9375 7.875C29.7062 7.875 33.7418 9.527 37.044 12.831C40.3463 16.135 41.9982 20.1705 42 24.9375C42 26.8625 41.6937 28.6781 41.0812 30.3844C40.4688 32.0906 39.6375 33.6 38.5875 34.9125L53.3531 49.6781C53.8344 50.1594 54.075 50.75 54.075 51.45C54.075 52.15 53.8125 52.7625 53.2875 53.2875C52.8062 53.7687 52.1938 54.0094 51.45 54.0094C50.7062 54.0094 50.0938 53.7687 49.6125 53.2875ZM24.9375 36.75C28.2188 36.75 31.0082 35.6011 33.306 33.3034C35.6037 31.0056 36.7518 28.217 36.75 24.9375C36.75 21.6562 35.6011 18.8667 33.3034 16.569C31.0056 14.2712 28.217 13.1233 24.9375 13.125C21.6562 13.125 18.8667 14.2739 16.569 16.5716C14.2712 18.8694 13.1233 21.658 13.125 24.9375C13.125 28.2188 14.2739 31.0082 16.5716 33.306C18.8694 35.6037 21.658 36.7518 24.9375 36.75Z" fill="black"/>
</svg>
