<svg width="63" height="63" viewBox="0 0 63 63" fill="none" xmlns="http://www.w3.org/2000/svg">
<path d="M10.5 55.125C9.05625 55.125 7.81987 54.6105 6.79087 53.5815C5.76187 52.5525 5.24825 51.317 5.25 49.875V21C5.25 19.5563 5.7645 18.3199 6.7935 17.2909C7.8225 16.2619 9.058 15.7483 10.5 15.75H21V10.5C21 9.05625 21.5145 7.81988 22.5435 6.79088C23.5725 5.76188 24.808 5.24825 26.25 5.25H36.75C38.1937 5.25 39.4301 5.7645 40.4591 6.7935C41.4881 7.8225 42.0017 9.058 42 10.5V15.75H52.5C53.9437 15.75 55.1801 16.2645 56.2091 17.2935C57.2381 18.3225 57.7517 19.558 57.75 21V49.875C57.75 51.3188 57.2355 52.5551 56.2065 53.5841C55.1775 54.6131 53.942 55.1268 52.5 55.125H10.5ZM10.5 49.875H52.5V21H10.5V49.875ZM26.25 15.75H36.75V10.5H26.25V15.75Z" fill="black"/>
</svg>
