<svg width="63" height="63" viewBox="0 0 63 63" fill="none" xmlns="http://www.w3.org/2000/svg">
<path d="M28.875 52.5C28.1312 52.5 27.5074 52.248 27.0034 51.744C26.4994 51.24 26.2482 50.617 26.25 49.875V34.125L11.025 14.7C10.3687 13.825 10.2699 12.9063 10.7284 11.9438C11.1869 10.9813 11.9857 10.5 13.125 10.5H49.875C51.0125 10.5 51.8114 10.9813 52.2716 11.9438C52.7319 12.9063 52.633 13.825 51.975 14.7L36.75 34.125V49.875C36.75 50.6188 36.498 51.2426 35.994 51.7466C35.49 52.2506 34.867 52.5018 34.125 52.5H28.875ZM31.5 32.2875L44.4937 15.75H18.5062L31.5 32.2875Z" fill="black"/>
</svg>
