<svg width="63" height="63" viewBox="0 0 63 63" fill="none" xmlns="http://www.w3.org/2000/svg">
<path d="M61.6875 44.625L48.5625 57.75L39.375 48.5625L43.3125 44.625L48.5625 49.875L57.75 40.6875L61.6875 44.625ZM15.75 5.25C14.3576 5.25 13.0223 5.80312 12.0377 6.78769C11.0531 7.77226 10.5 9.10761 10.5 10.5V52.5C10.5 55.4137 12.8363 57.75 15.75 57.75H36.2513C35.3063 56.1225 34.65 54.3375 34.335 52.5H15.75V10.5H34.125V23.625H47.25V34.335C48.1162 34.2038 49.0088 34.125 49.875 34.125C50.7675 34.125 51.6338 34.2038 52.5 34.335V21L36.75 5.25M21 31.5V36.75H42V31.5M21 42V47.25H34.125V42H21Z" fill="black"/>
</svg>
