<svg width="153" height="31" viewBox="0 0 153 31" fill="none" xmlns="http://www.w3.org/2000/svg">
<path d="M-4.88162e-05 29.4V0.599993H12.16C12.44 0.599993 12.8133 0.613326 13.28 0.639992C13.76 0.653326 14.1866 0.693326 14.56 0.759993C16.28 1.02666 17.6866 1.59333 18.78 2.45999C19.8866 3.32666 20.7 4.41999 21.22 5.73999C21.74 7.04666 22 8.50666 22 10.12C22 12.5333 21.4 14.6 20.2 16.32C19 18.0267 17.12 19.08 14.56 19.48L12.16 19.64H5.43995V29.4H-4.88162e-05ZM16.24 29.4L10.56 17.68L16.16 16.6L22.4 29.4H16.24ZM5.43995 14.56H11.92C12.2 14.56 12.5066 14.5467 12.84 14.52C13.1733 14.4933 13.48 14.44 13.76 14.36C14.4933 14.16 15.06 13.8267 15.46 13.36C15.86 12.88 16.1333 12.3533 16.28 11.78C16.44 11.1933 16.52 10.64 16.52 10.12C16.52 9.59999 16.44 9.05333 16.28 8.47999C16.1333 7.89333 15.86 7.36666 15.46 6.89999C15.06 6.41999 14.4933 6.07999 13.76 5.87999C13.48 5.79999 13.1733 5.74666 12.84 5.71999C12.5066 5.69333 12.2 5.67999 11.92 5.67999H5.43995V14.56ZM36.8368 30C34.6235 30 32.6702 29.5267 30.9768 28.58C29.2968 27.62 27.9768 26.3067 27.0168 24.64C26.0702 22.96 25.5968 21.04 25.5968 18.88C25.5968 16.52 26.0635 14.4667 26.9968 12.72C27.9302 10.9733 29.2168 9.61999 30.8568 8.65999C32.4968 7.68666 34.3835 7.19999 36.5168 7.19999C38.7835 7.19999 40.7102 7.73333 42.2968 8.79999C43.8835 9.86666 45.0568 11.3667 45.8168 13.3C46.5768 15.2333 46.8435 17.5067 46.6168 20.12H41.2368V18.12C41.2368 15.92 40.8835 14.34 40.1768 13.38C39.4835 12.4067 38.3435 11.92 36.7568 11.92C34.9035 11.92 33.5368 12.4867 32.6568 13.62C31.7902 14.74 31.3568 16.4 31.3568 18.6C31.3568 20.6133 31.7902 22.1733 32.6568 23.28C33.5368 24.3733 34.8235 24.92 36.5168 24.92C37.5835 24.92 38.4968 24.6867 39.2568 24.22C40.0168 23.7533 40.5968 23.08 40.9968 22.2L46.4368 23.76C45.6235 25.7333 44.3368 27.2667 42.5768 28.36C40.8302 29.4533 38.9168 30 36.8368 30ZM29.6768 20.12V16.08H43.9968V20.12H29.6768ZM60.6528 30C58.4128 30 56.4928 29.5 54.8928 28.5C53.2928 27.5 52.0661 26.14 51.2128 24.42C50.3594 22.7 49.9328 20.76 49.9328 18.6C49.9328 16.4133 50.3728 14.46 51.2528 12.74C52.1461 11.02 53.3994 9.66666 55.0128 8.67999C56.6261 7.69333 58.5328 7.19999 60.7328 7.19999C63.2794 7.19999 65.4128 7.84666 67.1328 9.13999C68.8661 10.42 69.9728 12.1733 70.4528 14.4L65.0128 15.84C64.6928 14.72 64.1328 13.8467 63.3328 13.22C62.5461 12.5933 61.6528 12.28 60.6528 12.28C59.5061 12.28 58.5661 12.56 57.8328 13.12C57.0994 13.6667 56.5594 14.42 56.2128 15.38C55.8661 16.3267 55.6928 17.4 55.6928 18.6C55.6928 20.48 56.1061 22.0067 56.9328 23.18C57.7728 24.34 59.0128 24.92 60.6528 24.92C61.8794 24.92 62.8128 24.64 63.4528 24.08C64.0928 23.52 64.5728 22.72 64.8928 21.68L70.4528 22.84C69.8394 25.1333 68.6794 26.9 66.9728 28.14C65.2661 29.38 63.1594 30 60.6528 30ZM74.4531 29.4V7.79999H79.2531V13.08L78.7331 12.4C79.0131 11.6533 79.3864 10.9733 79.8531 10.36C80.3197 9.74666 80.8931 9.23999 81.5731 8.83999C82.0931 8.51999 82.6597 8.27333 83.2731 8.09999C83.8864 7.91333 84.5197 7.79999 85.1731 7.75999C85.8264 7.70666 86.4797 7.71999 87.1331 7.79999V12.88C86.5331 12.6933 85.8331 12.6333 85.0331 12.7C84.2464 12.7533 83.5331 12.9333 82.8931 13.24C82.2531 13.5333 81.7131 13.9267 81.2731 14.42C80.8331 14.9 80.4997 15.4733 80.2731 16.14C80.0464 16.7933 79.9331 17.5333 79.9331 18.36V29.4H74.4531ZM98.9775 30.04C97.2841 30.04 95.9041 29.7533 94.8375 29.18C93.7708 28.6067 92.9375 27.88 92.3375 27C91.7508 26.12 91.3308 25.2067 91.0775 24.26C90.8241 23.3 90.6708 22.4267 90.6175 21.64C90.5641 20.8533 90.5375 20.28 90.5375 19.92V7.79999H96.0575V18C96.0575 18.4933 96.0841 19.1267 96.1375 19.9C96.1908 20.66 96.3575 21.4267 96.6375 22.2C96.9175 22.9733 97.3708 23.62 97.9975 24.14C98.6375 24.66 99.5375 24.92 100.697 24.92C101.164 24.92 101.664 24.8467 102.197 24.7C102.731 24.5533 103.231 24.2733 103.697 23.86C104.164 23.4333 104.544 22.8133 104.837 22C105.144 21.1733 105.297 20.0933 105.297 18.76L108.417 20.24C108.417 21.9467 108.071 23.5467 107.377 25.04C106.684 26.5333 105.637 27.74 104.237 28.66C102.851 29.58 101.097 30.04 98.9775 30.04ZM105.977 29.4V22.24H105.297V7.79999H110.777V29.4H105.977ZM116.767 4.79999V-6.67572e-06H122.207V4.79999H116.767ZM116.767 29.4V7.79999H122.207V29.4H116.767ZM141.163 29.4C139.67 29.68 138.203 29.8 136.763 29.76C135.336 29.7333 134.056 29.4867 132.923 29.02C131.803 28.54 130.95 27.7733 130.363 26.72C129.83 25.7333 129.55 24.7333 129.523 23.72C129.496 22.6933 129.483 21.5333 129.483 20.24V1.79999H134.923V19.92C134.923 20.76 134.93 21.52 134.943 22.2C134.97 22.8667 135.11 23.4 135.363 23.8C135.843 24.56 136.61 24.9733 137.663 25.04C138.716 25.1067 139.883 25.0533 141.163 24.88V29.4ZM125.803 12V7.79999H141.163V12H125.803ZM146.857 29.4V23.96H152.297V29.4H146.857Z" fill="white"/>
</svg>
